<?xml version="1.0" standalone="no"?><!DOCTYPE svg PUBLIC "-//W3C//DTD SVG 1.1//EN" "http://www.w3.org/Graphics/SVG/1.1/DTD/svg11.dtd"><svg class="icon" width="48px" height="48.00px" viewBox="0 0 1024 1024" version="1.1" xmlns="http://www.w3.org/2000/svg"><path fill="#2c2c2c" d="M630.051161 461.616496c0 26.474978 21.462824 47.938825 47.937802 47.938825s47.939849-21.464871 47.939849-47.938825c0-26.473955-21.464871-47.939849-47.939849-47.939849S630.051161 435.142541 630.051161 461.616496zM941.654039 197.951421c0-39.71042-32.209586-71.90875-71.90875-71.90875L150.658813 126.042671c-39.7227 0-71.90875 32.197306-71.90875 71.90875l0 527.341407c0 39.700187 32.18605 71.90875 71.90875 71.90875l263.36013 0 96.182596 96.15906 96.160083-96.15906 263.384689 0c39.699164 0 71.90875-32.209586 71.90875-71.90875L941.655062 639.375016l-0.303922 0c-0.819668-12.499685-10.954493-22.471804-23.664979-22.471804-12.71151 0-22.845311 9.972119-23.666002 22.471804l-0.304945 0 0 61.936631c0 26.461675-21.464871 47.950082-47.937802 47.950082L582.391698 749.261729l-72.190159 72.190159-72.189136-72.190159L174.628738 749.261729c-26.474978 0-47.938825-21.488407-47.938825-47.950082L126.689912 221.920322c0-26.473955 21.464871-47.939849 47.938825-47.939849l671.148673 0c26.472931 0 47.937802 21.465894 47.937802 47.939849l0 227.711212 0.49221 0c-0.070608 0.842181-0.49221 1.591241-0.49221 2.480494 0 13.248745 10.721179 23.969924 23.970948 23.969924 13.247722 0 23.968901-10.721179 23.968901-23.969924 0-0.890276-0.420579-1.638313-0.49221-2.480494l0.49221 0L941.655062 197.951421zM294.476313 461.616496c0 26.474978 21.464871 47.938825 47.938825 47.938825 26.473955 0 47.939849-21.464871 47.939849-47.938825 0-26.473955-21.465894-47.939849-47.939849-47.939849C315.941184 413.676647 294.476313 435.142541 294.476313 461.616496zM462.263737 461.616496c0 26.474978 21.464871 47.938825 47.937802 47.938825 26.474978 0 47.940872-21.464871 47.940872-47.938825 0-26.473955-21.465894-47.939849-47.940872-47.939849C483.727585 413.676647 462.263737 435.142541 462.263737 461.616496z" /></svg>