<?xml version="1.0" standalone="no"?><!DOCTYPE svg PUBLIC "-//W3C//DTD SVG 1.1//EN" "http://www.w3.org/Graphics/SVG/1.1/DTD/svg11.dtd"><svg class="icon" width="48px" height="48.00px" viewBox="0 0 1024 1024" version="1.1" xmlns="http://www.w3.org/2000/svg"><path fill="#2c2c2c" d="M47.44508 862.366739l257.009492-383.40418L304.454572 264.084631 51.666218 264.084631l0-93.120864 354.095667 0 0 316.169893-307.759339 459.496206L47.44508 862.366739zM161.33599 580.125587l248.51912 273.734408-37.862329 88.436168-311.772746-328.48129L131.836119 74.772984l96.910167 25.263383L161.33599 580.125587zM586.615906 196.897416l-50.557466 412.712693-84.263126-58.951647 54.778604-412.712693L586.615906 196.897416zM456.031802 862.286921l492.929666-349.538885 21.073968 88.436168L481.311559 950.72309 456.031802 862.286921zM780.291954 78.866209l0 497.150804-105.400538 0L674.891416 78.866209 780.291954 78.866209zM932.237575 129.519866l54.778604 269.529643-75.836199 67.378573-54.778604-273.734408L932.237575 129.519866z" /></svg>