<?xml version="1.0" standalone="no"?><!DOCTYPE svg PUBLIC "-//W3C//DTD SVG 1.1//EN" "http://www.w3.org/Graphics/SVG/1.1/DTD/svg11.dtd"><svg class="icon" width="48px" height="48.00px" viewBox="0 0 1024 1024" version="1.1" xmlns="http://www.w3.org/2000/svg"><path fill="#2c2c2c" d="M828.775178 639.937834c-12.443403-5.796006-26.883277-14.290471-43.590797-24.125467-39.758516-23.38357-92.371804-54.337559-159.184489-71.943542 19.543102-30.122041 36.112476-69.119217 53.765531-116.2834 12.04943-32.151257 11.843746-60.441581 11.603269-93.226265-0.034792-4.854565-0.068562-9.890254-0.068562-15.124466 0-7.986905 0.411369-17.641799 0.858554-27.857465 1.204431-27.621081 2.578732-58.93732-3.247974-80.618109-12.30628-45.988404-35.012422-79.878259-67.482951-100.761891-27.312042-17.550725-61.293995-26.099425-103.835903-26.099425-42.575678 0-76.575026 8.567119-103.94028 26.190499-32.486902 20.920472-55.174624 54.899354-67.465554 100.943017-5.77554 21.60711-4.400217 52.780087-3.180436 80.291674 0.447185 10.252505 0.876973 19.924795 0.876973 27.930119 0 5.143137-0.034792 10.106172-0.069585 14.906501-0.240477 32.94739-0.428765 61.402465 11.67183 93.678566 18.271132 48.687886 34.531468 86.995353 53.594639 116.482945-66.159816 17.73185-118.293173 48.468898-157.705811 71.726601-16.672728 9.816576-31.060413 18.293645-43.453674 24.089651-108.081601 50.55235-111.74299 109.308545-111.811552 115.849518l0 106.900705 844.856947-0.10847L940.965353 755.986897C940.897815 749.429551 937.252799 690.490184 828.775178 639.937834zM903.546116 823.780933l-770.034844 0.090051 0-66.997903c0.017396-0.055259 0.017396-0.091074 0.034792-0.145309l-0.034792-0.560772 0.034792 0.524956c0.618077-4.16588 8.593725-43.036165 89.689718-80.945567 13.974269-6.538927 29.065989-15.432481 46.547129-25.739221 45.205575-26.66122 101.481276-59.84397 175.735443-74.15286l33.484625-6.448876-23.170722-26.00835c-24.098861-27.042913-43.62559-71.438029-65.505923-129.760342-9.489118-25.302269-9.334599-47.907103-9.110495-79.186504 0.033769-4.892427 0.067538-9.94449 0.067538-15.19712 0-8.91095-0.447185-19.017122-0.910743-29.721929-1.031493-23.366174-2.320858-52.455699 1.837858-68.031443 18.204617-68.176752 59.954487-98.587366 135.379317-98.587366 75.355245 0 117.071346 30.337959 135.291312 98.352005 4.210905 15.666818 2.921539 44.864814 1.908466 68.339458-0.464581 10.685363-0.911766 20.756743-0.911766 29.631878 0 5.342682 0.033769 10.468422 0.068562 15.432481 0.240477 31.099299 0.396019 53.558823-9.024537 78.736249-21.657252 57.83215-41.114396 102.010325-65.745377 129.648802l-23.307845 26.15673 33.689287 6.319939c74.942853 14.075577 131.664715 47.455825 177.25096 74.262354 17.513886 10.324136 32.656771 19.235087 46.701648 25.775037 82.659605 38.523385 89.620134 78.135568 90.032526 81.289398L903.543046 823.780933z" /></svg>