<?xml version="1.0" standalone="no"?><!DOCTYPE svg PUBLIC "-//W3C//DTD SVG 1.1//EN" "http://www.w3.org/Graphics/SVG/1.1/DTD/svg11.dtd"><svg class="icon" width="48px" height="48.00px" viewBox="0 0 1024 1024" version="1.1" xmlns="http://www.w3.org/2000/svg"><path fill="#2c2c2c" d="M514.41664 42.061824c-260.149248 0-471.04 210.890752-471.04 471.04s210.890752 471.04 471.04 471.04 471.04-210.890752 471.04-471.04S774.561792 42.061824 514.41664 42.061824zM514.41664 943.181824c-237.146112 0-430.08-192.933888-430.08-430.08s192.933888-430.08 430.08-430.08 430.08 192.933888 430.08 430.08S751.562752 943.181824 514.41664 943.181824zM754.634752 245.174272l-325.931008 173.776896c-3.588096 1.912832-6.524928 4.849664-8.43776 8.43776l-173.780992 325.935104c-4.23936 7.954432-2.78528 17.743872 3.592192 24.117248 3.936256 3.936256 9.179136 5.996544 14.487552 5.996544 3.280896 0 6.586368-0.786432 9.629696-2.408448l325.931008-173.780992c3.588096-1.912832 6.524928-4.849664 8.43776-8.43776l173.780992-325.931008c4.23936-7.954432 2.78528-17.743872-3.592192-24.117248C772.38272 242.393088 762.59328 240.930816 754.634752 245.174272zM575.352832 574.042112l-261.07904 139.198464 139.198464-261.07904 261.07904-139.198464L575.352832 574.042112zM514.41664 513.101824m-40.96 0a10 10 0 1 0 81.92 0 10 10 0 1 0-81.92 0Z" /></svg>