<?xml version="1.0" standalone="no"?><!DOCTYPE svg PUBLIC "-//W3C//DTD SVG 1.1//EN" "http://www.w3.org/Graphics/SVG/1.1/DTD/svg11.dtd"><svg class="icon" width="48px" height="48.00px" viewBox="0 0 1024 1024" version="1.1" xmlns="http://www.w3.org/2000/svg"><path fill="#2c2c2c" d="M934.62853 333.908906c-4.705162-5.373381-15.60235-18.125823-29.964452-34.915207-43.23571-50.531883-115.576295-135.107117-148.881842-171.004699C742.020814 113.13571 724.903971 94.669126 691.747827 93.359294c-2.413979-0.081864-9.765411-0.355087-102.727663-0.355087-105.688087 0-254.964926 0.340761-254.897388 0.340761-15.807011 0-39.906895 3.586688-66.462714 34.669614-19.476587 22.832008-49.727565 57.760518-80.346933 93.112678-39.007409 45.035706-78.586846 90.752934-97.190553 112.902396-32.337499 37.451984-33.142841 89.689718-2.114151 136.361691l2.059915 2.728134c36.634362 42.675962 116.312052 134.288472 210.420407 242.485707l146.277528 168.248935c27.018354 31.123858 48.350195 35.32453 65.657372 35.32453 18.181081 0 38.720883-4.282536 65.657372-35.311227l151.295821-174.045965c89.007173-102.332666 164.375721-188.980095 205.674313-237.071394C962.629257 439.473173 970.485179 377.143593 934.62853 333.908906zM892.348588 436.731736c-40.930201 47.654346-116.216885 134.219911-205.128891 236.429781L535.909549 847.235111c-13.966083 16.080234-19.462261 16.080234-23.485901 16.080234-3.791349 0-9.519818 0-23.472598-16.080234L342.646917 678.945243c-93.003184-106.929358-171.904185-197.641359-209.016431-240.835114-16.420995-25.504884-16.871249-49.454342-0.982374-67.853387 18.753109-22.313192 58.115606-67.771523 96.890724-112.548332 30.728862-35.474956 61.075007-70.526263 80.605829-93.412506 12.888542-15.084557 19.558451-15.084557 24.045649-15.084557 0 0 149.195997-0.340761 254.828826-0.340761 79.991846 0 97.408517 0.204661 100.614535 0.314155 8.68787 0.340761 11.989055 2.536776 25.177426 16.789385 32.54216 35.078936 104.446817 119.122051 147.394978 169.340803 14.552437 17.007349 25.600051 29.910217 29.882588 34.806737C908.442124 389.828496 905.182894 421.23888 892.348588 436.731736zM683.176614 388.526851L511.830131 607.969749 340.704682 387.930263c-1.747807-2.749624-2.275833-2.749624-4.755304-2.749624l-83.488483 0 0 38.58069 2.004657 0c15.783475 0 21.63474 4.105504 28.110221 12.747325 0.635473 0.867764 1.382487 1.856277 2.87242 3.699252 37.633109 51.166333 185.127348 230.413763 226.756467 286.23921 41.615816-55.865355 189.015911-235.236606 227.149417-286.945291 0.921999-1.095961 1.64036-2.071172 2.275833-2.925632 6.516414-8.682753 12.382005-12.815887 28.095895-12.815887l1.89721 0L771.623016 385.114125 688.433338 385.114125C686.088944 385.114125 685.384909 385.114125 683.176614 388.526851z"  /></svg>