<?xml version="1.0" standalone="no"?><!DOCTYPE svg PUBLIC "-//W3C//DTD SVG 1.1//EN" "http://www.w3.org/Graphics/SVG/1.1/DTD/svg11.dtd"><svg t="1497840250424" class="icon" style="" viewBox="0 0 1024 1024" version="1.1" xmlns="http://www.w3.org/2000/svg" p-id="4710" xmlns:xlink="http://www.w3.org/1999/xlink" width="64" height="64"><defs><style type="text/css"></style></defs><path d="M54.582641 56.628742v910.742516h914.835741v-910.742516h-914.835741z m827.218218 816.941154v19.787672H773.426593l17.06977-0.235361H602.761632v-0.007163h-19.283182l-30.402428 0.243547H142.142859v-19.788695s-8.922207-110.538559 153.86125-138.835022c0 0 123.920334-16.72901 132.589784-50.805106 0 0 4.734838-3.790326 1.243317-43.36874-7.433296-84.270289-62.581314-123.926474-84.880179-156.141177-22.308075-32.221866-24.165376-69.39551-24.165376-69.39551 0-9.29162 3.89368-12.695137 10.355859-18.664081 8.001231-7.381108 5.601578-15.226796 4.070712-23.530926-5.807263-31.537274-6.319939-82.20628-0.792039-113.944122 1.237177-37.794791 35.930327-68.153216 35.930327-68.153216 6.513344-5.520737 13.035898-11.601222 17.605983-18.889209 1.276063-2.029216 2.451842-4.205788 3.143597-6.512321 2.612501-8.700149-6.235005-15.087627-4.454452-24.344455 1.596358-8.343015 15.903202-8.754385 24.548093-9.209755 19.478633-1.025353 39.060621-1.793856 58.501392-0.300852 145.55098 11.156084 193.409988 64.738443 193.409988 64.738443 11.325953 13.56904 18.788925 30.160927 23.291472 47.167253 1.334391 5.084808 2.491751 10.276041 3.115967 15.505135 4.535293 26.066679 4.519943 53.250808 3.109828 79.592756-0.670266 12.56006-2.127454 24.921599-3.979638 37.353746-0.959861 6.502088-0.463558 12.55699 3.877307 17.75334 3.63683 4.344958 7.792477 7.384178 9.575076 13.098319 0.835018 2.668783 1.049912 5.553483 1.049913 8.340969 0 0-1.858324 37.174668-24.1664 69.397556-22.308075 32.218796-77.44586 71.865771-84.884272 156.140153-3.491521 39.573297 1.238201 43.363623 1.2382 43.363624C604.017228 718.009957 727.933469 734.73385 727.933469 734.73385c164.610058 30.528294 153.86739 138.836045 153.86739 138.836046z" fill="#2c2c2c" p-id="4711"></path></svg>