<?xml version="1.0" standalone="no"?><!DOCTYPE svg PUBLIC "-//W3C//DTD SVG 1.1//EN" "http://www.w3.org/Graphics/SVG/1.1/DTD/svg11.dtd"><svg class="icon" width="48px" height="48.00px" viewBox="0 0 1024 1024" version="1.1" xmlns="http://www.w3.org/2000/svg"><path fill="#2c2c2c" d="M896 928c-19.2 0-32-12.8-32-32L864 544c0-32-12.8-64-44.8-83.2-25.6-19.2-57.6-19.2-89.6-6.4L576 518.4c-38.4 19.2-83.2 19.2-128 0L51.2 352C38.4 345.6 32 332.8 32 320s6.4-25.6 19.2-32L448 121.6c38.4-19.2 83.2-19.2 128 0l396.8 172.8c19.2 6.4 25.6 25.6 19.2 44.8-6.4 19.2-25.6 25.6-44.8 19.2L550.4 179.2c-25.6-12.8-51.2-12.8-76.8 0L147.2 320l332.8 140.8c25.6 12.8 51.2 12.8 76.8 0l153.6-64c51.2-19.2 108.8-12.8 153.6 12.8 44.8 32 70.4 76.8 70.4 134.4L934.4 896C928 915.2 915.2 928 896 928zM512 864c-70.4 0-147.2-19.2-204.8-64-6.4-6.4-12.8-12.8-12.8-25.6L294.4 441.6c0-19.2 12.8-32 32-32s32 12.8 32 32l0 313.6c96 57.6 217.6 57.6 320 0l0-320c0-19.2 12.8-32 32-32s32 12.8 32 32l0 339.2c0 12.8-6.4 19.2-12.8 25.6C659.2 844.8 582.4 864 512 864z" /></svg>