<?xml version="1.0" standalone="no"?><!DOCTYPE svg PUBLIC "-//W3C//DTD SVG 1.1//EN" "http://www.w3.org/Graphics/SVG/1.1/DTD/svg11.dtd"><svg class="icon" width="48px" height="48.00px" viewBox="0 0 1024 1024" version="1.1" xmlns="http://www.w3.org/2000/svg"><path fill="#2c2c2c" d="M348.16 913.408c-21.504-8.192-41.984-16.384-63.488-25.6-29.696-11.264-40.96-39.936-29.696-70.656 4.096-11.264 7.168-22.528 12.288-33.792 3.072-7.168 2.048-12.288-4.096-17.408-28.672-24.576-53.248-53.248-70.656-87.04-16.384-30.72-25.6-63.488-24.576-98.304 1.024-27.648 3.072-56.32 4.096-82.944-13.312-8.192-27.648-17.408-39.936-27.648-40.96-34.816-39.936-107.52 2.048-139.264 5.12-4.096 10.24-7.168 16.384-9.216 8.192-3.072 16.384 2.048 20.48 9.216 3.072 8.192 2.048 16.384-5.12 22.528-1.024 1.024-3.072 3.072-4.096 3.072-27.648 12.288-33.792 62.464-4.096 87.04 8.192 7.168 17.408 12.288 26.624 18.432 3.072-6.144 5.12-10.24 6.144-15.36 24.576-59.392 67.584-98.304 119.808-128 72.704-40.96 150.528-52.224 231.424-44.032 16.384 2.048 31.744 5.12 48.128 7.168 2.048 0 6.144-1.024 7.168-4.096 27.648-51.2 70.656-81.92 123.904-97.28 8.192-2.048 16.384-2.048 21.504 5.12 5.12 6.144 4.096 14.336 2.048 22.528-7.168 24.576-15.36 50.176-21.504 75.776-3.072 10.24-3.072 20.48-4.096 30.72-1.024 6.144 1.024 9.216 6.144 11.264 37.888 17.408 67.584 45.056 89.088 82.944 10.24 18.432 18.432 38.912 22.528 60.416 3.072 13.312 3.072 13.312 15.36 13.312l20.48 0c25.6 1.024 43.008 16.384 48.128 44.032 0 1.024 1.024 3.072 1.024 4.096l0 93.184c0 2.048-1.024 3.072-1.024 5.12-4.096 25.6-19.456 40.96-44.032 43.008-6.144 1.024-12.288 1.024-18.432 0-14.336-2.048-22.528 4.096-29.696 18.432-19.456 41.984-49.152 74.752-88.064 99.328-3.072 2.048-5.12 4.096-8.192 6.144 3.072 8.192 5.12 15.36 8.192 23.552 12.288 33.792 1.024 60.416-31.744 72.704-19.456 8.192-39.936 16.384-59.392 24.576l-19.456 0c-23.552-7.168-34.816-25.6-40.96-49.152-1.024-4.096-3.072-8.192-4.096-12.288-1.024-7.168-5.12-10.24-13.312-9.216-49.152 5.12-99.328 8.192-148.48-4.096-2.048-1.024-6.144 2.048-7.168 5.12-3.072 7.168-6.144 15.36-9.216 23.552-6.144 22.528-18.432 38.912-40.96 46.08L348.16 916.48 348.16 913.408zM700.416 226.304c-7.168 4.096-11.264 6.144-16.384 9.216-27.648 17.408-47.104 41.984-61.44 72.704-6.144 12.288-12.288 15.36-25.6 13.312-22.528-4.096-44.032-8.192-66.56-10.24-81.92-7.168-158.72 8.192-228.352 56.32-22.528 15.36-43.008 32.768-58.368 56.32-25.6 38.912-36.864 82.944-39.936 130.048-2.048 41.984 5.12 81.92 26.624 117.76 16.384 26.624 36.864 48.128 59.392 67.584 17.408 15.36 21.504 30.72 13.312 53.248-4.096 12.288-9.216 25.6-13.312 37.888-5.12 13.312-2.048 18.432 9.216 23.552 16.384 6.144 32.768 13.312 48.128 19.456 12.288 5.12 18.432 2.048 22.528-10.24 5.12-14.336 10.24-27.648 16.384-41.984 6.144-15.36 18.432-21.504 34.816-19.456 16.384 2.048 32.768 7.168 49.152 7.168 32.768 0 65.536-1.024 98.304-3.072 26.624-2.048 38.912 4.096 48.128 31.744 3.072 9.216 6.144 19.456 10.24 29.696 3.072 8.192 9.216 11.264 17.408 8.192 19.456-7.168 37.888-14.336 56.32-22.528 7.168-3.072 10.24-9.216 7.168-17.408-2.048-7.168-4.096-14.336-7.168-20.48-9.216-27.648-4.096-43.008 19.456-58.368 9.216-6.144 19.456-12.288 27.648-19.456 23.552-20.48 40.96-46.08 54.272-74.752 9.216-19.456 23.552-28.672 45.056-28.672 8.192 0 16.384 0 24.576 0 10.24 0 14.336-4.096 14.336-15.36 0-27.648 0-56.32 0-83.968 0-12.288-4.096-15.36-15.36-15.36-10.24 0-20.48 0-30.72-1.024-19.456-1.024-31.744-12.288-35.84-33.792-12.288-63.488-47.104-106.496-104.448-130.048-12.288-5.12-16.384-10.24-16.384-25.6 0-25.6 3.072-51.2 10.24-75.776C695.296 243.712 697.344 236.544 700.416 226.304L700.416 226.304zM405.504 94.208c16.384 5.12 34.816 8.192 50.176 16.384 43.008 22.528 66.56 60.416 72.704 110.592 1.024 4.096 0 8.192 0 13.312-11.264 0-22.528 1.024-33.792 2.048-2.048-41.984-19.456-74.752-56.32-94.208-24.576-13.312-49.152-13.312-74.752-4.096-49.152 18.432-81.92 78.848-55.296 142.336-10.24 5.12-20.48 9.216-31.744 14.336-9.216-19.456-13.312-38.912-13.312-60.416 0-71.68 50.176-130.048 116.736-139.264 2.048 0 4.096-1.024 7.168-2.048C393.216 94.208 399.36 94.208 405.504 94.208L405.504 94.208zM681.984 516.096c0-19.456 15.36-35.84 33.792-35.84 18.432 0 33.792 16.384 33.792 35.84 0 19.456-15.36 35.84-33.792 35.84C697.344 552.96 681.984 535.552 681.984 516.096L681.984 516.096zM681.984 516.096" /></svg>